<svg width="123" height="123" viewBox="0 0 123 123" fill="none" xmlns="http://www.w3.org/2000/svg">
<path d="M102.5 51.25C102.5 76.8391 74.1126 103.489 64.5801 111.72C63.6921 112.388 62.6111 112.749 61.5 112.749C60.3889 112.749 59.3079 112.388 58.4199 111.72C48.8874 103.489 20.5 76.8391 20.5 51.25C20.5 40.3761 24.8196 29.9476 32.5086 22.2586C40.1976 14.5696 50.6261 10.25 61.5 10.25C72.3739 10.25 82.8024 14.5696 90.4914 22.2586C98.1804 29.9476 102.5 40.3761 102.5 51.25Z" stroke="black" stroke-width="4" stroke-linecap="round" stroke-linejoin="round"/>
<path d="M61.5 66.625C69.9914 66.625 76.875 59.7414 76.875 51.25C76.875 42.7586 69.9914 35.875 61.5 35.875C53.0086 35.875 46.125 42.7586 46.125 51.25C46.125 59.7414 53.0086 66.625 61.5 66.625Z" stroke="black" stroke-width="4" stroke-linecap="round" stroke-linejoin="round"/>
</svg>
